<svg width="129" height="31" viewBox="0 0 129 31" fill="none" xmlns="http://www.w3.org/2000/svg">
<g clip-path="url(#clip0_2903_3249)">
<g filter="url(#filter0_d_2903_3249)">
<path d="M39.663 13.1314L48.8714 3.9739L45.3781 0.5L37.9166 7.92032L30.455 0.5L26.9617 3.9739L36.1699 13.1314C36.6522 13.6109 37.2843 13.8508 37.9164 13.8508C38.5485 13.8508 39.1806 13.6112 39.663 13.1314ZM52.9931 22.9141L45.5317 15.4938L52.9931 8.07329L49.4999 4.59939L40.2919 13.7569C39.3274 14.7162 39.3274 16.2714 40.2919 17.2308L49.4999 26.3883L52.9931 22.9141ZM37.9037 23.0797L45.3651 30.5L48.8582 27.0261L39.6502 17.8686C38.6853 16.9093 37.1218 16.9093 36.1569 17.8686L26.9489 27.0261L30.4422 30.5L37.9037 23.0797ZM35.5282 17.2433C35.9916 16.7825 36.2517 16.1579 36.2517 15.5064C36.2517 14.8549 35.9916 14.23 35.5282 13.7694L26.3202 4.61196L22.827 8.08586L30.2884 15.5062L22.827 22.9267L26.3202 26.4006L35.5284 17.2431L35.5282 17.2433ZM22.7023 29.2952H14.9586L14.4011 25.7932H9.35257L8.74134 29.2952H0.998047L7.66377 1.70498H16.8272L22.7028 29.2952H22.7023ZM13.5212 19.8783L13.0359 16.6619C13.0227 16.6502 12.9999 16.4892 12.9637 16.1785C12.94 15.9178 12.8141 14.8809 12.5866 13.0707C12.5623 12.8678 12.5329 12.5911 12.4967 12.2396C12.4607 11.8881 12.4127 11.4436 12.3531 10.9074L12.1181 8.29954C12.0953 8.55008 12.0621 8.82981 12.0201 9.13957C11.9781 9.44934 11.9332 9.7885 11.8852 10.1583C11.8013 10.8965 11.7416 11.4091 11.7056 11.6948C11.6688 11.9797 11.646 12.1533 11.6343 12.2134L11.1129 15.5535L10.3581 19.8785H13.5208L13.5212 19.8783ZM68.9838 29.295V22.6664H62.5518V18.4485H68.3187V12.2134H62.5518V8.19302H68.9838V1.7054H55.0592V29.295H68.9838ZM83.7203 22.6664H78.0967V1.7054H70.604V29.295H83.7203V22.6664ZM106.728 29.2952H98.9844L98.4263 25.7932H93.3778L92.7665 29.2952H85.0228L91.6889 1.70498H100.853L106.728 29.2952H106.728ZM97.5472 19.8783L97.0611 16.6619C97.0487 16.6502 97.0251 16.4892 96.9888 16.1785C96.9663 15.9178 96.8395 14.8809 96.6118 13.0707C96.5875 12.8678 96.5589 12.5909 96.5221 12.2394C96.4858 11.8878 96.4379 11.4434 96.3791 10.9072L96.1441 8.29933C96.1207 8.54987 96.0875 8.82959 96.0453 9.13936C96.0033 9.44913 95.9584 9.78808 95.9106 10.1579C95.8269 10.8961 95.767 11.4087 95.7308 11.6944C95.6948 11.9792 95.6714 12.1529 95.6603 12.2129L95.1381 15.553L94.3833 19.8781H97.5468L97.5472 19.8783ZM128.073 29.2952H119.97L116.27 19.4675C116.234 19.3005 116.17 19.0802 116.08 18.8062C115.99 18.5323 115.88 18.205 115.748 17.8235L115.802 19.6463V29.2952H108.345V1.70498H116.018C119.395 1.70498 121.922 2.3669 123.6 3.68948C125.731 5.38105 126.798 7.7876 126.798 10.9072C126.798 14.2437 125.367 16.549 122.503 17.8232L128.073 29.2952ZM119.359 10.9967C119.359 8.93676 118.275 7.90626 116.107 7.90626H115.838V14.481H116.341C117.203 14.481 117.922 14.1544 118.497 13.4982C119.072 12.8442 119.359 12.0101 119.359 10.9967Z" fill="#BBD6FF" fill-opacity="0.75"/>
</g>
</g>
<defs>
<filter id="filter0_d_2903_3249" x="-1.98395" y="-2.482" width="133.039" height="35.964" filterUnits="userSpaceOnUse" color-interpolation-filters="sRGB">
<feFlood flood-opacity="0" result="BackgroundImageFix"/>
<feColorMatrix in="SourceAlpha" type="matrix" values="0 0 0 0 0 0 0 0 0 0 0 0 0 0 0 0 0 0 127 0" result="hardAlpha"/>
<feOffset/>
<feGaussianBlur stdDeviation="1.491"/>
<feColorMatrix type="matrix" values="0 0 0 0 0 0 0 0 0 0 0 0 0 0 0 0 0 0 0.13 0"/>
<feBlend mode="normal" in2="BackgroundImageFix" result="effect1_dropShadow_2903_3249"/>
<feBlend mode="normal" in="SourceGraphic" in2="effect1_dropShadow_2903_3249" result="shape"/>
</filter>
<clipPath id="clip0_2903_3249">
<rect width="127.076" height="30" fill="white" transform="translate(0.998047 0.5)"/>
</clipPath>
</defs>
</svg>
