<svg width="132" height="45" viewBox="0 0 132 45" fill="none" xmlns="http://www.w3.org/2000/svg">
<g clip-path="url(#clip0_2903_3234)">
<path d="M0 23.0472V22.0369C0.106227 21.3028 0.153439 20.5615 0.193569 19.8297C0.901747 13.6119 3.85957 8.65233 8.69171 4.76915C11.6151 2.36853 15.1404 0.814871 18.8848 0.276942C25.1073 -0.598838 30.8789 0.555492 35.9495 4.4127C40.064 7.55465 42.9628 11.5677 44.3013 16.6075C44.9594 19.133 45.1821 21.7523 44.9599 24.3526C44.686 27.9171 43.7017 31.2574 41.7613 34.2671C38.3408 39.5761 33.6455 43.2138 27.3947 44.4578C18.4929 46.2306 10.9956 43.6481 5.08944 36.6985C2.61366 33.7935 0.980858 30.2658 0.368253 26.4984C0.297435 26.0877 0.250223 25.6769 0.193569 25.2638L0 23.0472ZM42.5497 22.4571C42.6204 21.2317 42.5356 20.0022 42.2971 18.7982C41.9052 16.6235 41.1426 14.5323 40.0428 12.6158C38.6827 10.3061 36.9048 8.26972 34.7999 6.61042C32.8355 5.0384 30.576 3.87612 28.1548 3.19228C26.7308 2.76244 25.2558 2.52428 23.7688 2.4841C23.4124 2.4841 23.0606 2.36607 22.7042 2.41564C22.2757 2.47458 21.843 2.49826 21.4106 2.48646C20.8833 2.4943 20.3575 2.54482 19.8384 2.63754C17.9157 2.90202 16.0395 3.43521 14.2651 4.22149C9.55357 6.35096 5.8444 10.2149 3.90914 15.0094C3.09349 17.0189 2.61495 19.1493 2.49279 21.3146C2.41981 22.6701 2.48308 24.0295 2.68163 25.3724C2.92645 27.2237 3.43686 29.03 4.19714 30.7357C5.66542 34.0075 7.94104 36.6561 10.7879 38.7948C14.1824 41.3442 18.0727 42.4914 22.2911 42.5882C22.9308 42.6024 23.5658 42.5528 24.2055 42.5032C25.0116 42.4486 25.8135 42.3429 26.6063 42.1869C28.5712 41.8087 30.462 41.1151 32.2056 40.1332C34.9236 38.5992 37.2667 36.4802 39.0655 33.9296C40.1798 32.3799 41.0441 30.6649 41.6267 28.8472C42.3225 26.7915 42.6353 24.6256 42.5497 22.4571Z" fill="#BBD6FF" fill-opacity="0.75"/>
<path d="M67.3382 21.7898C67.4273 21.8893 67.5484 21.9545 67.6805 21.974C68.4982 22.2257 69.2322 22.695 69.8039 23.3315C70.3756 23.9681 70.7635 24.748 70.9263 25.588C71.3323 27.3538 71.0679 29.0038 69.8664 30.4296C69.3218 31.0601 68.6425 31.5603 67.8788 31.8932C66.7093 32.4339 65.4374 32.7173 64.149 32.7241C60.7923 32.7501 57.4355 32.7241 54.0788 32.7241C53.9843 32.7241 53.8923 32.7123 53.8049 32.7052C53.6916 32.2945 53.6633 12.8975 53.7719 12.2247C53.9481 12.1656 54.1358 12.1494 54.3195 12.1775H63.4291C65.0412 12.1371 66.6353 12.5248 68.0487 13.3011C71.0089 14.9984 70.9003 18.4331 69.5359 20.1894C69.0879 20.777 68.5016 21.2449 67.8292 21.5514L67.3382 21.7898ZM58.9369 28.4798C58.996 28.5064 59.0589 28.5239 59.1233 28.5317H63.2638C65.9242 28.4491 65.9714 24.4337 63.3134 24.3109H59.383C59.2366 24.3109 59.0785 24.2708 58.9439 24.3983L58.9369 28.4798ZM58.9369 20.3145C59.0257 20.3328 59.1155 20.3454 59.206 20.3522H62.8838C63.1286 20.3481 63.372 20.314 63.6085 20.2507C64.0678 20.1593 64.4767 19.9004 64.7559 19.5244C65.0351 19.1484 65.1646 18.682 65.1192 18.2159C65.072 17.2481 64.4701 16.6083 63.4527 16.4502C63.266 16.4222 63.0773 16.4096 62.8885 16.4124H59.3264C59.2012 16.4124 59.0596 16.3723 58.9369 16.5115V20.3145Z" fill="#BBD6FF" fill-opacity="0.75"/>
<path d="M120.317 17.1101C121.376 20.1128 122.431 23.1028 123.48 26.0803C123.494 26.1199 123.515 26.1563 123.543 26.1875C123.571 26.2188 123.605 26.2442 123.643 26.2624C123.68 26.2806 123.721 26.2912 123.763 26.2936C123.805 26.296 123.847 26.2901 123.886 26.2763C123.931 26.261 123.972 26.2356 124.006 26.2021C124.039 26.1685 124.065 26.1277 124.08 26.0827C124.604 24.7065 125.01 23.3066 125.454 21.9186C125.964 20.3228 126.462 18.7247 126.969 17.1124C126.988 17.0453 127.028 16.986 127.083 16.9434C127.139 16.9009 127.206 16.8774 127.276 16.8764H131.612C131.696 16.8764 131.777 16.9097 131.836 16.969C131.895 17.0284 131.929 17.1088 131.929 17.1927C131.929 17.234 131.921 17.2751 131.905 17.3131C129.814 22.8983 127.721 28.4795 125.628 34.0568C125.339 34.8567 124.942 35.6135 124.448 36.3064C123.994 36.9486 123.406 37.4844 122.725 37.877C122.043 38.2695 121.284 38.5092 120.501 38.5797C118.717 38.778 117.043 38.4593 115.556 37.3876L115.237 37.1515L115.015 36.9839L116.946 33.6437C116.967 33.6073 116.996 33.5754 117.029 33.5498C117.063 33.5243 117.101 33.5056 117.142 33.4949C117.182 33.4842 117.225 33.4816 117.267 33.4872C117.308 33.4929 117.349 33.5068 117.385 33.528L117.43 33.5587C117.484 33.6036 117.534 33.6531 117.588 33.6909C117.985 33.9836 118.454 34.1631 118.946 34.2102C119.321 34.2564 119.702 34.1886 120.039 34.0156C120.376 33.8426 120.653 33.5724 120.834 33.24C120.862 33.1928 120.884 33.1409 120.91 33.0937C121.043 32.8472 121.119 32.5737 121.132 32.2936C121.145 32.0135 121.094 31.7342 120.983 31.4767C119.127 26.9821 117.286 22.4796 115.459 17.9693C115.341 17.6766 115.223 17.3839 115.102 17.0912C115.077 17.0227 115.055 16.9283 115.117 16.8882C115.145 16.875 115.175 16.8685 115.206 16.8693H119.996C120.069 16.867 120.14 16.8896 120.199 16.9333C120.257 16.9771 120.299 17.0394 120.317 17.1101Z" fill="#BBD6FF" fill-opacity="0.75"/>
<path d="M100.857 27.6451L102.917 29.7838C102.999 29.8668 103.045 29.9787 103.045 30.0954C103.045 30.212 102.999 30.3239 102.917 30.407C101.597 31.7831 99.8294 32.6428 97.9318 32.8313C96.5773 33.0175 95.1992 32.9308 93.8787 32.5763C92.4518 32.2008 91.1746 31.3959 90.22 30.2708C89.2654 29.1456 88.6795 27.7544 88.5414 26.2854C88.3691 24.7675 88.4139 23.2638 88.912 21.8002C89.9223 18.8849 92.0209 17.2325 95.0755 16.7604C96.2545 16.5857 97.4559 16.6353 98.6164 16.9067C99.6003 17.1137 100.523 17.5464 101.311 18.1707C102.099 18.795 102.731 19.5938 103.158 20.5043C103.987 22.1567 104.18 23.9224 104.138 25.7873C104.135 25.9019 104.088 26.0111 104.007 26.0917C103.925 26.1723 103.816 26.2181 103.701 26.2193C103.248 26.2311 102.806 26.2193 102.365 26.2193H95.406C95.0023 26.2193 94.601 26.2051 94.1738 26.2193C94.0556 26.2224 93.9435 26.2719 93.8617 26.3573C93.78 26.4426 93.7352 26.5567 93.7371 26.6749C93.7377 26.7282 93.7481 26.781 93.7677 26.8307C93.9531 27.3169 94.2546 27.7505 94.6459 28.0936C95.7459 29.0543 97.0065 29.1134 98.3261 28.7309C98.9784 28.535 99.5802 28.199 100.089 27.7466L100.245 27.6144C100.332 27.5406 100.443 27.5026 100.557 27.5083C100.671 27.514 100.778 27.5629 100.857 27.6451ZM98.7321 23.3275C98.851 23.3275 98.9651 23.2803 99.0492 23.1962C99.1333 23.1121 99.1806 22.998 99.1806 22.879V22.8365C99.1357 22.2703 98.9097 21.7336 98.5359 21.3059C98.1622 20.8782 97.6607 20.5822 97.1056 20.4618C95.2171 20.0487 93.9542 21.406 93.6072 22.7822C93.5935 22.8387 93.5911 22.8972 93.6 22.9546C93.609 23.012 93.6292 23.067 93.6594 23.1166C93.6897 23.1661 93.7294 23.2092 93.7764 23.2434C93.8233 23.2776 93.8765 23.3022 93.933 23.3157C93.9688 23.3228 94.0057 23.3228 94.0416 23.3157L98.7321 23.3275Z" fill="#BBD6FF" fill-opacity="0.75"/>
<path d="M84.4478 27.6335L86.5109 29.7863C86.5869 29.8676 86.6292 29.9748 86.6292 30.0861C86.6292 30.1974 86.5869 30.3046 86.5109 30.3859C85.8247 31.1272 84.9951 31.7215 84.0724 32.1327C82.6497 32.7501 81.0988 33.0141 79.5519 32.9023C78.6283 32.8742 77.715 32.6989 76.8467 32.383C74.2713 31.4151 72.751 29.529 72.2317 26.8592C71.8614 25.131 71.9741 23.3342 72.5575 21.6659C73.6339 18.7317 75.775 17.1477 78.8437 16.7606C80.0265 16.6077 81.2275 16.6773 82.3846 16.9659C84.4407 17.4735 85.9043 18.7104 86.8225 20.606C87.6511 22.3198 87.8163 24.1469 87.7314 26.0188C87.7154 26.0906 87.6891 26.1598 87.6535 26.2242H77.7579C77.6847 26.2238 77.6126 26.242 77.5484 26.2772C77.4842 26.3123 77.4299 26.3631 77.3908 26.425C77.3516 26.4868 77.3288 26.5576 77.3244 26.6306C77.3201 26.7037 77.3344 26.7766 77.366 26.8427C77.4014 26.9158 77.4392 26.9867 77.4722 27.0575C77.7672 27.6739 78.2438 28.1853 78.838 28.5228C79.4322 28.8604 80.1154 29.0081 80.7959 28.9459C81.9347 28.8699 83.0119 28.401 83.8435 27.6193C83.926 27.5421 84.0355 27.5004 84.1485 27.5031C84.2615 27.5057 84.3689 27.5525 84.4478 27.6335ZM77.0591 23.2947C77.824 23.4292 82.4531 23.3891 82.8261 23.2522C82.7836 22.2844 82.4767 21.4322 81.6458 20.8727C81.2378 20.5811 80.7566 20.409 80.2563 20.3756C79.7559 20.3422 79.2561 20.449 78.813 20.6839C77.7461 21.2126 77.2857 22.1758 77.0591 23.2947Z" fill="#BBD6FF" fill-opacity="0.75"/>
<path d="M115.811 11.6133C115.62 12.763 115.438 13.8701 115.251 14.9937C115.238 15.0745 115.193 15.1469 115.127 15.195C115.061 15.2432 114.978 15.2633 114.897 15.251H114.869C114.576 15.1755 114.312 15.107 114.047 15.0315C113.995 15.0173 113.944 15.0032 113.892 14.9937C113.418 14.9211 112.934 15.0394 112.548 15.3226C112.161 15.6058 111.902 16.0309 111.828 16.5045C111.812 16.6043 111.805 16.7055 111.807 16.8067V17.3C111.808 17.3808 111.841 17.4579 111.899 17.5148C111.956 17.5717 112.033 17.6039 112.114 17.6045H114.782C114.857 17.6045 114.929 17.6317 114.986 17.6813C115.042 17.7308 115.079 17.7992 115.088 17.8736C115.173 18.8526 115.186 19.8365 115.126 20.8173C115.12 20.8936 115.087 20.965 115.031 21.0177C114.976 21.0705 114.903 21.1008 114.826 21.1029C113.941 21.1242 113.044 21.1029 112.105 21.1029C112.024 21.1054 111.948 21.139 111.891 21.1966C111.835 21.2543 111.803 21.3316 111.802 21.4122V32.3913C111.802 32.4729 111.769 32.5509 111.711 32.6084C111.653 32.6659 111.575 32.6982 111.493 32.6982H107.088C107.048 32.6982 107.008 32.6902 106.971 32.6748C106.934 32.6594 106.9 32.6368 106.871 32.6083C106.843 32.5798 106.82 32.546 106.805 32.5087C106.789 32.4715 106.782 32.4316 106.782 32.3913V21.424C106.781 21.3465 106.751 21.2721 106.698 21.2153C106.645 21.1586 106.573 21.1236 106.496 21.1171C105.995 21.0722 105.514 21.1171 105.03 21.0935C104.95 21.0874 104.876 21.0509 104.823 20.9915C104.77 20.9322 104.742 20.8545 104.744 20.7748V17.9279C104.745 17.8473 104.777 17.7701 104.833 17.7124C104.889 17.6547 104.966 17.6211 105.046 17.6187C105.545 17.5833 106.028 17.6187 106.503 17.6045C106.575 17.6004 106.644 17.5705 106.696 17.5203C106.749 17.4701 106.781 17.4029 106.789 17.3307C106.782 17.2136 106.782 17.0961 106.789 16.979C106.774 16.3944 106.796 15.8094 106.852 15.2274C107.192 12.9849 108.587 11.4835 110.79 10.9453C112.414 10.5511 113.991 10.7305 115.605 11.2687C115.675 11.2928 115.733 11.3405 115.771 11.4036C115.809 11.4666 115.823 11.5409 115.811 11.6133Z" fill="#BBD6FF" fill-opacity="0.75"/>
<path d="M15.3721 14.0784V12.426C15.3933 11.2173 16.0307 10.266 17.0788 9.86236C17.6319 9.63202 18.2423 9.57641 18.828 9.703C19.4137 9.82959 19.9466 10.1323 20.3553 10.5705C20.8073 11.039 21.061 11.664 21.0635 12.315V14.0406C21.5851 14.1468 22.0903 14.076 22.5908 14.0902C23.0912 14.1043 23.5657 14.0902 24.0827 14.0902C24.1393 13.6393 24.1535 13.184 24.1251 12.7305C24.1185 12.3911 24.151 12.0521 24.2219 11.7201C24.3745 11.1304 24.719 10.6083 25.2011 10.236C25.6832 9.86369 26.2756 9.66248 26.8847 9.66407C28.2633 9.64282 29.394 10.4265 29.7174 11.6375C29.7995 11.9871 29.8383 12.3455 29.8331 12.7045V13.991C29.9629 14.1516 30.1258 14.0925 30.2674 14.0925H33.4943C33.7016 14.0835 33.9093 14.0994 34.1128 14.1398C34.3649 14.1869 34.5956 14.3124 34.772 14.4986C34.9483 14.6847 35.0613 14.9218 35.0948 15.1761C35.162 15.6066 35.1387 16.0463 35.0264 16.4673C34.7931 17.4255 34.3369 18.3152 33.695 19.064C33.0677 19.7696 32.3942 20.4328 31.679 21.0492C31.4713 21.2381 31.2612 21.4316 31.07 21.6394C30.9346 21.7832 30.8288 21.9522 30.7587 22.1369C30.6887 22.3216 30.6557 22.5183 30.6616 22.7158C30.6758 25.0551 30.6805 27.3968 30.6616 29.7386C30.6368 31.4281 29.9457 33.0394 28.7388 34.222C27.5319 35.4045 25.9069 36.0627 24.2172 36.0531C22.9142 36.0531 21.6206 36.0697 20.3104 36.0531C18.8009 36.0473 17.3428 35.5042 16.1973 34.521C15.0519 33.5377 14.294 32.1787 14.0596 30.6875C13.9982 30.2766 13.9722 29.8612 13.9817 29.4458C13.9817 27.293 13.9439 25.1401 13.9817 22.9896C13.9965 22.6785 13.9404 22.3682 13.8178 22.0819C13.6951 21.7957 13.509 21.541 13.2735 21.3372L11.4912 19.6848C10.7351 18.9704 10.1479 18.0962 9.77274 17.1259C9.56209 16.62 9.45919 16.0757 9.47058 15.5278C9.49891 14.5552 9.96394 14.0878 10.9578 14.0784H15.3721ZM19.7982 16.8804C19.7473 16.8398 19.6883 16.8106 19.6252 16.7947C19.5621 16.7788 19.4963 16.7767 19.4323 16.7883H15.1313C14.4373 16.7883 14.1634 17.107 14.2767 17.7892C14.3629 18.3727 14.6315 18.9139 15.0439 19.3354C15.3603 19.6565 15.6766 19.9822 16.0141 20.2797C16.2365 20.4695 16.4117 20.7085 16.526 20.9776C16.6403 21.2467 16.6905 21.5387 16.6728 21.8306C16.6444 23.1313 16.6728 24.4272 16.6728 25.735V29.5285C16.6615 30.0159 16.7464 30.5008 16.9227 30.9553C17.099 31.4099 17.3632 31.8252 17.7002 32.1776C18.0372 32.5299 18.4404 32.8124 18.8867 33.0087C19.3329 33.2051 19.8135 33.3115 20.301 33.3219H20.537C21.8188 33.2747 23.1006 33.3219 24.3848 33.3054C25.106 33.2928 25.8073 33.0665 26.3998 32.6551C26.9923 32.2437 27.4494 31.6657 27.7132 30.9944C28.0815 30.0714 27.9635 29.1059 27.9493 28.2089C22.6309 26.2166 19.7982 22.5317 19.7982 16.8804ZM26.5495 25.1661C26.87 25.1661 27.1774 25.0388 27.4041 24.8121C27.6308 24.5854 27.7581 24.278 27.7581 23.9575C27.7581 23.6369 27.6308 23.3295 27.4041 23.1028C27.1774 22.8762 26.87 22.7488 26.5495 22.7488C26.2289 22.7488 25.9215 22.8762 25.6949 23.1028C25.4682 23.3295 25.3409 23.6369 25.3409 23.9575C25.3409 24.278 25.4682 24.5854 25.6949 24.8121C25.9215 25.0388 26.2289 25.1661 26.5495 25.1661ZM27.9233 14.0713C27.9233 13.4599 27.9469 12.891 27.9233 12.2985C27.8997 11.8405 27.5763 11.5903 27.0806 11.5596C26.5093 11.5266 26.1104 11.7532 26.0608 12.2253C25.9971 12.839 25.9971 13.4576 26.0608 14.0713H27.9233ZM19.0924 14.0713C19.1207 14.017 19.1514 13.9863 19.1514 13.9533C19.1514 13.5048 19.1726 13.0539 19.1726 12.6054C19.1741 12.4535 19.1567 12.302 19.1207 12.1545C19.005 11.7249 18.632 11.5053 18.1104 11.5478C17.6382 11.5856 17.3125 11.8547 17.2936 12.3079C17.2676 12.8863 17.2936 13.4646 17.2936 14.0666L19.0924 14.0713Z" fill="#BBD6FF" fill-opacity="0.75"/>
<path d="M20.2659 23.9773C20.2622 24.2153 20.1881 24.4469 20.053 24.6429C19.9179 24.8389 19.7278 24.9906 19.5067 25.0788C19.2855 25.167 19.0432 25.1878 18.8103 25.1385C18.5774 25.0893 18.3643 24.9723 18.1977 24.8021C18.0312 24.632 17.9187 24.4164 17.8745 24.1825C17.8303 23.9485 17.8563 23.7068 17.9492 23.4876C18.0421 23.2684 18.1978 23.0816 18.3966 22.9507C18.5955 22.8198 18.8287 22.7507 19.0667 22.7521C19.2217 22.7496 19.3757 22.7777 19.5199 22.8347C19.664 22.8917 19.7955 22.9766 19.9069 23.0844C20.0182 23.1923 20.1073 23.321 20.1689 23.4633C20.2305 23.6055 20.2634 23.7585 20.2659 23.9135V23.9773Z" fill="#BBD6FF" fill-opacity="0.75"/>
</g>
<defs>
<clipPath id="clip0_2903_3234">
<rect width="131.934" height="45" fill="white"/>
</clipPath>
</defs>
</svg>
