<svg width="104" height="31" viewBox="0 0 104 31" fill="none" xmlns="http://www.w3.org/2000/svg">
<g clip-path="url(#clip0_3634_4335)">
<path d="M40.5674 15.0735C41.3424 14.6335 41.9624 14.0855 42.4144 13.4395C42.928 12.7092 43.1998 11.8363 43.1914 10.9435C43.1914 9.2215 42.5474 7.8765 41.2784 6.9475C40.0244 6.0275 38.2994 5.5625 36.1494 5.5625H28.3754V25.5135H36.4604C38.7244 25.5135 40.5374 24.9875 41.8484 23.9485C43.1694 22.9005 43.8404 21.4335 43.8404 19.5865C43.8404 18.4615 43.5244 17.4945 42.9034 16.7115C42.3464 16.0115 41.5614 15.4615 40.5674 15.0735ZM32.5824 9.1585H35.8114C36.8244 9.1585 37.5884 9.3555 38.0854 9.7415C38.5754 10.1215 38.8154 10.6235 38.8154 11.2715C38.8154 11.9215 38.5754 12.4475 38.0854 12.8305C37.5884 13.2165 36.8244 13.4125 35.8114 13.4125H32.5824V9.1585ZM38.6614 21.2415C38.1014 21.6905 37.2464 21.9175 36.1214 21.9175H32.5824V17.0355H36.1224C37.2464 17.0355 38.1024 17.2555 38.6644 17.6855C39.2214 18.1155 39.4914 18.6825 39.4914 19.4215C39.4914 20.1995 39.2204 20.7945 38.6614 21.2415ZM49.5254 10.5945H45.2894V25.5125H49.5244L49.5254 10.5945ZM91.3564 12.8395C90.6783 12.0356 89.8238 11.399 88.8594 10.9795C87.8734 10.5425 86.7644 10.3205 85.5654 10.3205C84.0954 10.3205 82.7694 10.6545 81.6224 11.3125C80.4882 11.9581 79.5513 12.9005 78.9124 14.0385C78.2614 15.1885 77.9324 16.5205 77.9324 17.9995C77.9324 19.4795 78.2524 20.8995 78.8824 22.0665C79.498 23.2195 80.4363 24.1682 81.5824 24.7965C82.7394 25.4355 84.0984 25.7595 85.6224 25.7595C87.4924 25.7595 89.0794 25.2895 90.3424 24.3605C91.5574 23.4675 92.3924 22.2085 92.8484 20.6305H88.5844C88.3604 21.1675 88.0444 21.6245 87.5914 21.9465C87.0564 22.3265 86.3654 22.5185 85.5374 22.5185C84.8194 22.5185 84.2034 22.3445 83.7074 22.0005C83.2104 21.6555 82.8304 21.1475 82.5804 20.4865C82.4207 20.0522 82.3136 19.6003 82.2614 19.1405H92.9224L92.9434 19.0085C93.1334 17.8055 93.0854 16.6655 92.7994 15.6205C92.5259 14.5995 92.0335 13.6502 91.3564 12.8385V12.8395ZM82.3294 16.3795C82.3941 16.0704 82.4827 15.7669 82.5944 15.4715C82.8544 14.8015 83.2294 14.2875 83.7104 13.9435C84.1894 13.5985 84.7854 13.4255 85.4814 13.4255C86.3544 13.4255 87.0714 13.7085 87.6114 14.2655C88.1244 14.7955 88.4144 15.5195 88.4764 16.3785L82.3294 16.3795ZM49.6134 5.5625H45.2014V9.1585H49.6134V5.5625ZM72.8054 12.2875C72.3279 11.7046 71.7312 11.2307 71.0554 10.8975C70.2654 10.5145 69.3404 10.3205 68.3064 10.3205C67.0414 10.3205 65.9064 10.6335 64.9364 11.2475C63.9664 11.8625 63.1964 12.7305 62.6514 13.8265C62.1064 14.9205 61.8304 16.2045 61.8304 17.6445C61.8304 19.0845 62.1204 20.2935 62.6944 21.3945C63.2694 22.4995 64.0664 23.3795 65.0634 24.0115C66.0614 24.6445 67.2004 24.9665 68.4484 24.9665C69.3904 24.9665 70.2514 24.7625 71.0054 24.3595C71.5866 24.0533 72.0949 23.6252 72.4954 23.1045V24.7285C72.4954 25.7355 72.2314 26.5085 71.7114 27.0235C71.1894 27.5385 70.3954 27.7985 69.3514 27.7985C68.4514 27.7985 67.7444 27.5945 67.2494 27.1915C66.8444 26.8615 66.4904 26.4295 66.4084 25.5135H62.3244C62.3624 26.7955 62.7384 27.6585 63.2704 28.4155C63.8654 29.2625 64.7034 29.9255 65.7634 30.3835C66.8114 30.8355 68.0294 31.0655 69.3794 31.0655C71.6474 31.0655 73.4524 30.4955 74.7444 29.3725C76.0444 28.2435 76.7024 26.6625 76.7024 24.6745V10.5945H72.8064L72.8054 12.2875ZM72.0604 19.6265C71.8149 20.1552 71.4236 20.6027 70.9324 20.9165C70.4524 21.2165 69.8724 21.3705 69.2104 21.3705C68.2504 21.3705 67.5054 21.0435 66.9304 20.3725C66.3564 19.7035 66.0654 18.7855 66.0654 17.6435C66.0654 16.5015 66.3554 15.5835 66.9294 14.9145C67.4984 14.2525 68.2654 13.9165 69.2094 13.9165C70.1544 13.9165 70.9884 14.2565 71.5754 14.9295C72.1674 15.6085 72.4674 16.5305 72.4674 17.6695C72.4674 18.4085 72.3304 19.0655 72.0604 19.6255V19.6265ZM103.197 14.1635V10.5955H100.14V5.5625H95.9334V10.5955H93.3224V14.1635H95.9334V20.0035C95.9334 23.2505 96.5734 25.6365 100.559 25.5625L103.062 25.5125V22.1695H101.82C100.048 22.1695 100.147 21.1365 100.147 19.2175L100.14 14.1645L103.197 14.1635ZM60.8014 14.1635V10.5955H57.7444V5.5625H53.5374V10.5955H50.9254V14.1635H53.5354V20.0035C53.5354 23.2505 54.1754 25.6365 58.1624 25.5625L60.6644 25.5125V22.1695H59.4254C57.6534 22.1695 57.7514 21.1365 57.7514 19.2175L57.7444 14.1645L60.8014 14.1635ZM10.7554 9.1585H17.1084L23.6074 15.6155C24.0304 16.0355 24.0324 16.7195 23.6114 17.1415L15.2764 25.5185H8.7334L10.7124 23.5945L17.9764 16.3765L10.8044 9.1575" fill="#BBD6FF" fill-opacity="0.75"/>
<path d="M13.3653 16.36H7.01428L0.514285 9.903C0.413699 9.80313 0.333794 9.68441 0.279146 9.55363C0.224497 9.42285 0.196176 9.28257 0.195804 9.14083C0.195433 8.99909 0.223018 8.85867 0.27698 8.7276C0.330943 8.59653 0.410223 8.47739 0.510285 8.377L8.84528 0H15.3893L13.4113 1.924L6.14528 9.142L13.3183 16.36" fill="#BBD6FF" fill-opacity="0.75"/>
</g>
<defs>
<clipPath id="clip0_3634_4335">
<rect width="103" height="31" fill="white" transform="translate(0.195312)"/>
</clipPath>
</defs>
</svg>
