<svg width="136" height="45" viewBox="0 0 136 45" fill="none" xmlns="http://www.w3.org/2000/svg">
<g clip-path="url(#clip0_3607_4346)">
<path d="M13.5088 22.4909L30.2226 32.1282C30.3564 32.2042 30.5073 32.2439 30.6609 32.2435C30.8145 32.2431 30.9653 32.2025 31.0986 32.1257C31.2319 32.0491 31.3431 31.9388 31.4212 31.8058C31.4992 31.6728 31.5416 31.5218 31.5441 31.3674L31.5469 13.6203C31.5452 13.4657 31.5034 13.3141 31.4255 13.1806C31.3476 13.0473 31.2364 12.9366 31.1029 12.8597C30.9695 12.7829 30.8183 12.7423 30.6644 12.7422C30.5106 12.7421 30.3593 12.7824 30.2258 12.8591L13.5088 22.4909Z" fill="#BBD6FF" fill-opacity="0.75"/>
<path d="M29.2511 8.70597L18.156 0.178858C18.0375 0.0894549 17.8988 0.0312483 17.7523 0.00953968C17.6059 -0.0121689 17.4563 0.00331049 17.3173 0.0545684C17.1784 0.105826 17.0543 0.191234 16.9565 0.303011C16.8588 0.414787 16.7903 0.549382 16.7576 0.694534L12.7007 19.6792L29.1611 10.1764C29.2884 10.1048 29.3958 10.0022 29.4734 9.87809C29.5511 9.75396 29.5964 9.61226 29.6054 9.46588C29.6143 9.3195 29.5866 9.17329 29.5247 9.0405C29.4628 8.90771 29.3688 8.79266 29.2511 8.70597Z" fill="#BBD6FF" fill-opacity="0.75"/>
<path d="M18.1486 44.8165L29.2723 36.2802C29.3872 36.1917 29.4788 36.0762 29.539 35.9439C29.5992 35.8115 29.626 35.6662 29.6172 35.521C29.6082 35.3757 29.564 35.2348 29.4883 35.1109C29.4125 34.9868 29.3075 34.8834 29.1827 34.8098L12.6997 25.3145L16.7633 44.3005C16.793 44.446 16.8592 44.5815 16.9554 44.6943C17.0516 44.8071 17.1749 44.8934 17.3135 44.945C17.4521 44.9966 17.6015 45.0119 17.7476 44.9895C17.8937 44.967 18.0317 44.9075 18.1486 44.8165Z" fill="#BBD6FF" fill-opacity="0.75"/>
<path d="M9.22397 22.4899L13.6018 2.03499C13.6398 1.85782 13.6225 1.67317 13.5523 1.50624C13.4821 1.33931 13.3623 1.19823 13.2094 1.10227C13.0564 1.00632 12.8778 0.960146 12.6978 0.970072C12.5177 0.979997 12.3452 1.04553 12.2036 1.15772L1.00303 9.75861C0.719247 9.97673 0.489393 10.2579 0.331361 10.58C0.173329 10.9021 0.0913831 11.2565 0.0919063 11.6157L0.0883826 33.3997C0.0877434 33.759 0.169574 34.1134 0.327502 34.4356C0.48543 34.7577 0.715193 35.0389 0.998899 35.2572L12.1967 43.8488C12.3393 43.9563 12.5109 44.018 12.689 44.0258C12.8671 44.0334 13.0434 43.9868 13.1946 43.892C13.3459 43.7971 13.4651 43.6585 13.5366 43.4943C13.6081 43.3301 13.6285 43.1481 13.5952 42.972L9.22397 22.4899Z" fill="#BBD6FF" fill-opacity="0.75"/>
<path d="M96.3953 16.5263C97.1951 16.5099 97.9856 16.7067 98.6861 17.0968C99.3857 17.4869 99.9707 18.0563 100.381 18.7472L98.996 19.8197C98.7005 19.3706 98.3108 18.9918 97.8549 18.7094C97.4133 18.4447 96.9082 18.3078 96.3945 18.3139C95.9317 18.3037 95.4758 18.4312 95.0844 18.6807C94.8993 18.8034 94.7499 18.9734 94.6514 19.1734C94.552 19.3734 94.5087 19.5961 94.5232 19.8189C94.5172 20.0303 94.5622 20.24 94.6539 20.4302C94.7431 20.602 94.8636 20.7552 95.0097 20.8818C95.1744 21.024 95.3569 21.1443 95.5522 21.2396C95.7645 21.3465 95.9946 21.4625 96.2442 21.5877L97.629 22.2278C98.062 22.4254 98.4806 22.6519 98.8831 22.9055C99.2295 23.1205 99.5445 23.3833 99.8187 23.6861C100.063 23.9615 100.259 24.2765 100.399 24.6179C100.54 24.9835 100.611 25.3733 100.605 25.7656C100.613 26.2821 100.503 26.7936 100.286 27.2614C100.08 27.6987 99.7797 28.0844 99.4061 28.3901C99.0138 28.7076 98.5664 28.9497 98.0866 29.1048C97.5585 29.2779 97.0049 29.3637 96.4488 29.3586C95.4834 29.3771 94.5308 29.1263 93.6987 28.634C92.904 28.1552 92.246 27.4776 91.79 26.6671L93.1935 25.595C93.3701 25.8611 93.5671 26.1129 93.7836 26.3478C93.9993 26.5844 94.2404 26.7959 94.5036 26.9781C94.7711 27.1633 95.064 27.3092 95.3731 27.4113C95.7152 27.5215 96.0718 27.5755 96.431 27.571C96.982 27.5974 97.5263 27.435 97.9746 27.1103C98.1673 26.962 98.321 26.7692 98.4237 26.5482C98.5265 26.3272 98.5749 26.0844 98.5647 25.8407C98.5689 25.6233 98.5239 25.4078 98.4339 25.2104C98.3439 25.0255 98.2166 24.8619 98.0595 24.7301C97.882 24.5825 97.691 24.4533 97.4881 24.3444C97.2698 24.2254 97.0236 24.1032 96.7494 23.9777L95.3841 23.3376C94.9986 23.1574 94.6242 22.9563 94.2608 22.7352C93.9246 22.5324 93.6155 22.2856 93.3438 22.0011C93.0849 21.7298 92.876 21.4145 92.7266 21.0698C92.5712 20.6978 92.4948 20.2973 92.5024 19.894C92.4948 19.4118 92.6009 18.9348 92.8115 18.5014C93.0135 18.0912 93.3014 17.7291 93.6529 17.4387C94.0197 17.1381 94.4391 16.9083 94.8891 16.7613C95.3748 16.6018 95.8842 16.5225 96.3953 16.5263Z" fill="#BBD6FF" fill-opacity="0.75"/>
<path d="M111.608 25.8999L113.986 19.9167L116.063 19.9173L112.001 29.3619H111.327L108.427 23.19L105.563 29.3609H104.889L100.811 19.9146L102.907 19.9149L105.32 25.9552L108.11 19.709H108.783L111.608 25.8999Z" fill="#BBD6FF" fill-opacity="0.75"/>
<path d="M120.63 19.7113C121.151 19.7051 121.67 19.7879 122.164 19.9561C122.607 20.1084 123.013 20.3557 123.352 20.6807C123.696 21.0204 123.961 21.4316 124.129 21.8853C124.326 22.4242 124.421 22.9953 124.41 23.5694L124.409 29.1575L122.574 29.1573V28.1225C122.239 28.5192 121.816 28.8316 121.34 29.0346C120.8 29.2617 120.221 29.3738 119.636 29.3637C119.189 29.3692 118.744 29.3056 118.317 29.1752C117.947 29.0626 117.604 28.8771 117.307 28.6294C117.031 28.3988 116.811 28.1095 116.66 27.7826C116.507 27.4398 116.43 27.0671 116.436 26.6913C116.422 26.3191 116.498 25.9492 116.658 25.6133C116.818 25.2773 117.056 24.9855 117.353 24.7629C118.077 24.2587 118.945 24.0107 119.824 24.0577L122.425 24.058L122.426 23.4558C122.457 23.1887 122.428 22.9179 122.341 22.6636C122.253 22.4094 122.11 22.1784 121.92 21.9883C121.731 21.798 121.501 21.6534 121.249 21.5653C120.996 21.4773 120.726 21.448 120.46 21.4798C119.969 21.4684 119.484 21.5919 119.057 21.8371C118.618 22.1101 118.226 22.4533 117.897 22.8532L116.773 21.6865C117.203 21.0481 117.791 20.5326 118.477 20.1907C119.149 19.8686 119.885 19.7045 120.63 19.7113ZM120.047 27.8397C120.361 27.8418 120.671 27.7876 120.965 27.6799C121.244 27.5785 121.5 27.4254 121.723 27.2284C121.941 27.0349 122.116 26.7978 122.238 26.5322C122.364 26.258 122.427 25.9592 122.425 25.6573V25.488L120.067 25.4877C119.646 25.4619 119.226 25.5599 118.86 25.7697C118.722 25.8615 118.611 25.988 118.537 26.1366C118.463 26.2852 118.429 26.4506 118.438 26.6165C118.43 26.7965 118.468 26.9757 118.55 27.136C118.633 27.2962 118.755 27.4318 118.906 27.529C119.248 27.7444 119.645 27.8526 120.047 27.8397Z" fill="#BBD6FF" fill-opacity="0.75"/>
<path d="M131.428 19.7113C132.049 19.7057 132.665 19.8308 133.234 20.0786C133.776 20.3142 134.263 20.6601 134.666 21.0947C135.071 21.5382 135.388 22.0557 135.601 22.6192C135.831 23.2291 135.944 23.8768 135.938 24.5289C135.944 25.1839 135.83 25.8346 135.601 26.448C135.388 27.0166 135.067 27.5378 134.655 27.9814C134.241 28.4242 133.741 28.7757 133.185 29.0136C132.63 29.2516 132.03 29.3708 131.427 29.3637C130.826 29.3707 130.231 29.2554 129.677 29.0249C129.164 28.8119 128.711 28.4759 128.357 28.0462L128.356 32.543L126.393 32.5428L126.394 19.9175L128.21 19.9177L128.209 21.2537C128.55 20.7611 129.015 20.3684 129.557 20.1155C130.142 19.8408 130.782 19.7026 131.428 19.7113ZM131.11 21.5175C130.769 21.5184 130.429 21.5787 130.108 21.6961C129.778 21.8152 129.476 22.0009 129.219 22.2419C128.945 22.5041 128.728 22.8213 128.583 23.1728C128.411 23.6029 128.328 24.0639 128.339 24.5275C128.328 24.9903 128.407 25.4507 128.573 25.8824C128.715 26.2367 128.928 26.5573 129.2 26.8235C129.454 27.0694 129.757 27.2586 130.089 27.3785C130.415 27.4972 130.761 27.5578 131.109 27.5575C131.484 27.5597 131.856 27.4861 132.204 27.3414C132.541 27.2009 132.847 26.9928 133.102 26.7297C133.363 26.457 133.567 26.1338 133.701 25.7797C133.987 24.9833 133.987 24.1113 133.702 23.3147C133.569 22.9624 133.368 22.6396 133.112 22.3645C132.861 22.0997 132.558 21.8886 132.223 21.7437C131.872 21.5912 131.493 21.5142 131.11 21.5175Z" fill="#BBD6FF" fill-opacity="0.75"/>
<path d="M46.1934 29.1433L44.21 29.143L44.212 16.7246L46.1956 16.7249L46.1934 29.1433ZM48.7212 22.5393L54.4281 29.1445L51.9764 29.144L46.2505 22.539L51.4359 16.7257L53.8687 16.7262L48.7212 22.5393Z" fill="#BBD6FF" fill-opacity="0.75"/>
<path d="M58.7891 30.1995C58.4999 30.9565 58.0191 31.6244 57.3943 32.1372C56.8127 32.5506 56.1128 32.7619 55.4009 32.7391C55.1444 32.7383 54.8882 32.7225 54.6336 32.6919C54.3811 32.6621 54.1311 32.6149 53.8851 32.5507V30.8762C54.1098 30.9009 54.3095 30.9197 54.4843 30.9325C54.6587 30.9449 54.827 30.9512 54.9891 30.9513C55.3824 30.9588 55.7715 30.8685 56.1215 30.6883C56.5219 30.4291 56.8276 30.0462 56.9926 29.5971L57.3665 28.7317L53.7002 19.9062L55.8146 19.9068L58.4339 26.6432L61.1675 19.9076L63.2631 19.9079L58.7891 30.1995Z" fill="#BBD6FF" fill-opacity="0.75"/>
<path d="M66.2567 21.0378C66.6174 20.6156 67.0687 20.2811 67.5765 20.0596C68.128 19.817 68.7245 19.6952 69.3264 19.7023C69.9304 19.6955 70.5293 19.815 71.085 20.0532C71.6406 20.2912 72.1411 20.6429 72.5545 21.0857C72.9665 21.5297 73.2876 22.0509 73.4993 22.6197C73.7279 23.2331 73.842 23.8838 73.8355 24.5388C73.8424 25.1909 73.7282 25.8386 73.4988 26.4485C73.2863 27.0119 72.9685 27.5291 72.5628 27.9725C72.1629 28.4055 71.6787 28.7512 71.1403 28.9882C70.5739 29.2365 69.9616 29.3614 69.3437 29.3547C68.6956 29.3628 68.0535 29.2278 67.4629 28.9593C66.9169 28.7139 66.4478 28.3236 66.1058 27.8303V29.1472L64.291 29.147L64.293 15.0352L66.2577 15.0354L66.2567 21.0378ZM69.008 21.5085C68.6602 21.5084 68.315 21.5687 67.9877 21.6871C67.6559 21.8072 67.3531 21.9963 67.0988 22.2421C66.8269 22.5082 66.6133 22.8286 66.4719 23.1829C66.3059 23.6144 66.2264 24.0748 66.2378 24.5375C66.2265 25.004 66.3092 25.468 66.4808 25.9016C66.6242 26.2571 66.8412 26.5778 67.1172 26.8426C67.3719 27.0831 67.6748 27.266 68.0056 27.379C68.3278 27.4906 68.6661 27.5479 69.0069 27.5486C69.3897 27.5518 69.7689 27.4749 70.1205 27.3229C70.4553 27.178 70.7578 26.9669 71.0099 26.702C71.2663 26.4272 71.4667 26.1045 71.5996 25.7521C71.8857 24.9557 71.8859 24.0839 71.6001 23.2874C71.4662 22.9332 71.2625 22.6098 71.0009 22.3369C70.7459 22.0738 70.4403 21.8657 70.1027 21.7252C69.7559 21.5801 69.3837 21.5065 69.008 21.5085Z" fill="#BBD6FF" fill-opacity="0.75"/>
<path d="M79.9004 19.7034C80.4833 19.698 81.0616 19.8067 81.6032 20.0235C82.1067 20.2215 82.5643 20.5217 82.9474 20.9054C83.3305 21.289 83.6308 21.7479 83.8296 22.2534C84.0447 22.7882 84.1527 23.3605 84.1476 23.9374C84.1481 24.1766 84.1323 24.4155 84.1004 24.6525C84.0788 24.8303 84.0445 25.0062 83.9978 25.1791L77.148 25.1781C77.2493 25.8806 77.6102 26.519 78.1589 26.9658C78.7265 27.4031 79.4271 27.6292 80.1418 27.6059C80.6434 27.6132 81.1409 27.5139 81.6015 27.3145C82.0469 27.1146 82.4578 26.8448 82.8187 26.5151L83.7726 27.87C83.2928 28.3295 82.7351 28.699 82.1258 28.9609C81.486 29.2299 80.7981 29.3643 80.1047 29.3559C79.4261 29.3618 78.7526 29.2372 78.1206 28.9888C77.5376 28.7636 77.0064 28.4212 76.5593 27.9828C76.1121 27.5443 75.7586 27.0189 75.5201 26.4385C75.268 25.8373 75.1406 25.1907 75.1457 24.5383C75.1407 23.8867 75.265 23.2406 75.5112 22.6379C75.7436 22.0645 76.087 21.5433 76.5216 21.1046C76.9548 20.6703 77.4662 20.3223 78.0285 20.0794C78.6197 19.825 79.2572 19.697 79.9004 19.7034ZM79.8433 21.3779C79.2142 21.3619 78.6012 21.5795 78.1217 21.9893C77.6355 22.4174 77.3061 22.9969 77.1862 23.6354L82.1829 23.6362C82.1901 23.3213 82.1294 23.0086 82.0049 22.7195C81.8805 22.4304 81.6955 22.1717 81.4622 21.9613C81.0118 21.5742 80.4358 21.3667 79.8433 21.3779Z" fill="#BBD6FF" fill-opacity="0.75"/>
<path d="M90.5301 19.8185C90.671 19.8171 90.812 19.8266 90.9512 19.8468C91.0701 19.8656 91.1788 19.8875 91.2789 19.9127L91.2781 21.6626L90.6795 21.6623C90.3272 21.6608 89.9765 21.7148 89.6411 21.8224C89.3244 21.9209 89.0315 22.0842 88.7802 22.3019C88.5306 22.5227 88.3327 22.7956 88.1994 23.1014C88.0491 23.4551 87.9761 23.8366 87.9838 24.221L87.9829 29.1507L86.019 29.1504L86.0199 19.912L87.8352 19.9122L87.8343 21.1541C88.1434 20.7286 88.5518 20.3861 89.0239 20.1568C89.4942 19.9308 90.0088 19.8151 90.5301 19.8185Z" fill="#BBD6FF" fill-opacity="0.75"/>
</g>
<defs>
<clipPath id="clip0_3607_4346">
<rect width="135.849" height="45" fill="white" transform="translate(0.0883789)"/>
</clipPath>
</defs>
</svg>
