<svg width="177" height="35" viewBox="0 0 177 35" fill="none" xmlns="http://www.w3.org/2000/svg">
<g clip-path="url(#clip0_3634_4340)">
<mask id="mask0_3634_4340" style="mask-type:luminance" maskUnits="userSpaceOnUse" x="0" y="0" width="39" height="35">
<path d="M0.195312 0H38.9187V35H0.195312V0Z" fill="white"/>
</mask>
<g mask="url(#mask0_3634_4340)">
<path d="M30.7913 18.1829C30.7891 18.2293 30.7882 18.2765 30.7856 18.3225C30.7484 18.4585 30.6316 18.5592 30.4854 18.564C30.4347 18.5535 30.3835 18.5421 30.3323 18.5307C29.9841 18.4542 29.6293 18.371 29.2591 18.2731C24.0293 16.8914 21.0022 17.703 19.9754 18.0963C19.9671 18.0998 19.9579 18.102 19.95 18.1059C19.7575 18.1908 19.6131 18.364 19.5707 18.5749V18.8374V21.5421V21.8041C19.6311 22.1038 19.8962 22.3295 20.2134 22.3295C20.2571 22.3295 20.3 22.3247 20.3407 22.3164C20.349 22.3142 20.356 22.312 20.3643 22.3103C21.91 21.9056 25.5045 21.2463 29.2591 22.5483L29.4022 22.5969L29.4271 22.6052C29.4337 22.6074 29.4411 22.6096 29.4481 22.6117C29.5584 22.6647 29.6358 22.7754 29.6358 22.9057C29.6358 22.9267 29.6279 22.9447 29.6244 22.9644C29.5986 23.0199 29.5719 23.0746 29.5453 23.1297C27.4374 27.5594 22.9276 30.625 17.6951 30.625C10.4466 30.625 4.57013 24.7489 4.57013 17.5C4.57013 10.2511 10.4466 4.37499 17.6951 4.37499C22.8196 4.37499 27.2532 7.31455 29.4149 11.5972C29.4398 11.6309 29.4578 11.6681 29.4687 11.7101C29.4753 11.7368 29.4849 11.7622 29.4849 11.7915C29.4849 11.9726 29.3383 12.1196 29.1568 12.1196C29.1266 12.1196 29.0994 12.1095 29.0714 12.1021C29.0561 12.0977 29.0395 12.0973 29.0246 12.0903C24.0734 10.829 21.1365 11.5456 20.0533 11.9411C20.0012 11.9604 19.957 11.9774 19.9141 11.9949C19.74 12.085 19.6101 12.2474 19.5707 12.4447V12.7067V15.4337V15.6957C19.6311 15.9954 19.8962 16.2212 20.2134 16.2212C20.223 16.2212 20.2318 16.2185 20.2414 16.2181C20.3228 16.1958 20.4111 16.1726 20.5061 16.1494C22.1213 15.7439 25.6139 15.1594 29.2591 16.4233L29.4271 16.4802C29.8169 16.6092 30.2037 16.7138 30.5874 16.8035C30.5992 16.807 30.6119 16.8074 30.6233 16.8122C30.723 16.856 30.7913 16.9496 30.8096 17.0603C30.8109 17.0914 30.8114 17.1224 30.8123 17.1535C30.8153 17.269 30.8201 17.3841 30.8201 17.5C30.8201 17.7301 30.8031 17.9559 30.7913 18.1829ZM38.2616 12.446C38.2178 12.446 38.1745 12.4504 38.1325 12.4587C38.0909 12.4718 38.0494 12.4849 38.0039 12.4985C37.3345 12.6949 36.2889 12.9023 34.8574 12.9176C34.8399 12.918 34.8224 12.918 34.8044 12.9185C34.685 12.9084 34.5853 12.8384 34.5358 12.736C34.5258 12.715 34.5214 12.6923 34.5166 12.6691C32.3138 4.98836 24.9974 -0.531138 16.4863 0.0406744C7.85182 0.620799 0.855754 7.58624 0.241066 16.2181C-0.488684 26.4626 7.60638 35 17.6951 35C25.2372 35 31.6614 30.2282 34.1215 23.5401C34.1281 23.5195 34.1342 23.4999 34.1438 23.4811C34.1946 23.3844 34.2904 23.3174 34.4054 23.3078C34.4203 23.3074 34.4352 23.3065 34.4505 23.306C36.2132 23.2544 37.6316 22.9298 38.3661 22.7215C38.4278 22.7041 38.4825 22.6879 38.5346 22.6726C38.7511 22.5746 38.9038 22.3628 38.9187 22.113V22.0329V19.3484V19.1196C38.8644 18.8077 38.5941 18.5697 38.2664 18.5697C38.2226 18.5697 38.1806 18.5749 38.1395 18.5824C38.1028 18.5937 38.0608 18.606 38.0209 18.6178C37.4588 18.7849 36.6275 18.9612 35.5167 19.0229C35.4948 19.0242 35.4721 19.0251 35.4502 19.026C35.2848 19.0124 35.1553 18.8803 35.1501 18.7127C35.1505 18.7031 35.1514 18.6935 35.1518 18.6839C35.1776 18.2923 35.1951 17.8986 35.1951 17.5C35.1951 17.4882 35.1947 17.4764 35.1947 17.4641C35.1947 17.4453 35.1943 17.4274 35.1943 17.4086C35.2056 17.2712 35.3001 17.1614 35.4292 17.1246C35.4699 17.1211 35.511 17.1176 35.5513 17.1141C36.785 16.9951 37.7698 16.7646 38.3473 16.6018C38.423 16.5804 38.4904 16.5607 38.5516 16.5423C38.7546 16.4439 38.8973 16.2452 38.9187 16.0103V15.8917V13.1197V13.0887C38.9108 12.7325 38.6203 12.446 38.2616 12.446Z" fill="#BBD6FF" fill-opacity="0.75"/>
</g>
<mask id="mask1_3634_4340" style="mask-type:luminance" maskUnits="userSpaceOnUse" x="52" y="9" width="125" height="22">
<path d="M52.3267 9.05273H176.107V30.625H52.3267V9.05273Z" fill="white"/>
</mask>
<g mask="url(#mask1_3634_4340)">
<path d="M168.287 25.4152V17.0839C168.576 16.6617 168.957 16.3266 169.431 16.0785C169.905 15.8305 170.416 15.7067 170.964 15.7067C171.572 15.7067 172.012 15.862 172.287 16.173C172.56 16.4841 172.697 16.9872 172.697 17.6837V25.4152H176.108V17.4947C176.108 16.1621 175.77 15.1305 175.097 14.4012C174.422 13.6714 173.464 13.307 172.22 13.307C170.509 13.307 169.128 13.9217 168.076 15.151L167.71 13.496H164.866V25.4152H168.287ZM156.024 23.3712C155.483 23.3712 155.064 23.2435 154.769 22.988C154.472 22.7325 154.324 22.3606 154.324 21.8715C154.324 21.2791 154.592 20.8162 155.13 20.4833C155.666 20.1499 156.42 19.9832 157.39 19.9832H158.556V22.1825C158.252 22.5452 157.877 22.8344 157.429 23.0492C156.981 23.2636 156.512 23.3712 156.024 23.3712ZM155.146 25.5929C155.842 25.5929 156.496 25.4577 157.107 25.1873C157.718 24.9169 158.268 24.5227 158.756 24.0043L159.145 25.4152H161.967V18.1169C161.967 16.5397 161.518 15.3361 160.622 14.5066C159.726 13.6771 158.437 13.2628 156.757 13.2628C156.001 13.2628 155.19 13.3494 154.324 13.5235C153.458 13.6977 152.632 13.9435 151.847 14.2625L152.569 16.562C153.117 16.3249 153.731 16.1302 154.413 15.9788C155.094 15.8265 155.694 15.7509 156.212 15.7509C157.73 15.7509 158.512 16.4395 158.556 17.8172V18.1169H157.101C155.22 18.1169 153.755 18.4647 152.708 19.1612C151.66 19.8572 151.136 20.8276 151.136 22.0714C151.136 23.1455 151.497 24.0008 152.219 24.6378C152.941 25.2744 153.916 25.5929 155.146 25.5929ZM146.782 18.1169H141.96C142.094 17.2799 142.377 16.656 142.81 16.2452C143.244 15.8344 143.838 15.6288 144.593 15.6288C145.956 15.6288 146.685 16.4579 146.782 18.1169ZM144.616 25.6377C146.148 25.6445 147.818 25.2297 149.625 24.3932L148.803 22.2714C148.077 22.575 147.415 22.7955 146.815 22.9324C146.215 23.0694 145.619 23.138 145.026 23.138C143.116 23.138 142.071 22.1235 141.894 20.0944H149.914V19.3169C149.914 15.2805 148.133 13.2628 144.571 13.2628C142.675 13.2628 141.201 13.8049 140.15 14.8899C139.098 15.9749 138.572 17.4873 138.572 19.4276C138.572 21.3754 139.109 22.897 140.183 23.9934C141.257 25.0893 142.734 25.6377 144.616 25.6377ZM133.818 25.5929C134.396 25.5929 135.003 25.5264 135.64 25.3929C136.276 25.2599 136.869 25.0709 137.417 24.8264L136.873 22.505C136.058 22.8677 135.225 23.0492 134.373 23.0492C133.336 23.0492 132.542 22.7342 131.991 22.1051C131.438 21.4751 131.163 20.583 131.163 19.4276C131.163 18.2647 131.431 17.3652 131.968 16.7287C132.505 16.0912 133.266 15.7732 134.251 15.7732C135.007 15.7732 135.788 15.984 136.595 16.4062L137.35 14.1514C136.262 13.5883 135.11 13.307 133.896 13.307C131.933 13.307 130.415 13.842 129.341 14.9122C128.267 15.9819 127.731 17.4873 127.731 19.4276C127.731 21.4195 128.253 22.9451 129.297 24.0043C130.341 25.063 131.848 25.5929 133.818 25.5929ZM118.444 22.8935C117.081 22.8935 116.05 22.4162 115.35 21.4607C114.65 20.5052 114.301 19.1091 114.301 17.2729C114.301 15.4656 114.647 14.0993 115.339 13.174C116.031 12.2478 117.067 11.7854 118.444 11.7854C119.807 11.7854 120.838 12.2517 121.538 13.1849C122.237 14.1181 122.587 15.4805 122.587 17.2729C122.587 19.1091 122.237 20.5052 121.538 21.4607C120.838 22.4162 119.807 22.8935 118.444 22.8935ZM118.444 25.6152C120.962 25.6152 122.88 24.9003 124.198 23.4714C125.516 22.0417 126.175 19.9754 126.175 17.2729C126.175 14.6291 125.513 12.5978 124.187 11.1799C122.861 9.76148 120.947 9.05273 118.444 9.05273C115.941 9.05273 114.026 9.76367 112.701 11.1855C111.375 12.6074 110.712 14.6361 110.712 17.2729C110.712 19.9832 111.368 22.0513 112.679 23.4767C113.99 24.902 115.911 25.6152 118.444 25.6152ZM100.682 25.4152V17.0839C100.971 16.6617 101.352 16.3266 101.826 16.0785C102.3 15.8305 102.811 15.7067 103.359 15.7067C103.966 15.7067 104.406 15.862 104.681 16.173C104.954 16.4841 105.092 16.9872 105.092 17.6837V25.4152H108.502V17.4947C108.502 16.1621 108.165 15.1305 107.491 14.4012C106.817 13.6714 105.858 13.307 104.614 13.307C102.903 13.307 101.522 13.9217 100.47 15.151L100.104 13.496H97.2601V25.4152H100.682ZM91.8172 18.1169H86.9959C87.1293 17.2799 87.4128 16.656 87.846 16.2452C88.2791 15.8344 88.8732 15.6288 89.6288 15.6288C90.9912 15.6288 91.7205 16.4579 91.8172 18.1169ZM89.6511 25.6377C91.1841 25.6445 92.8536 25.2297 94.6609 24.3932L93.8388 22.2714C93.113 22.575 92.4502 22.7955 91.8504 22.9324C91.2506 23.0694 90.6543 23.138 90.0619 23.138C88.1513 23.138 87.107 22.1235 86.9294 20.0944H94.9497V19.3169C94.9497 15.2805 93.1686 13.2628 89.6065 13.2628C87.7103 13.2628 86.2368 13.8049 85.1855 14.8899C84.1333 15.9749 83.6079 17.4873 83.6079 19.4276C83.6079 21.3754 84.1447 22.897 85.2188 23.9934C86.2924 25.0893 87.7698 25.6377 89.6511 25.6377ZM75.5102 23.2715C75.1913 23.2715 74.9213 23.2562 74.6991 23.2269C74.4768 23.1971 74.147 23.1302 73.7103 23.0269V17.6172C73.9028 17.0244 74.2157 16.565 74.6492 16.2395C75.0823 15.9136 75.6021 15.7508 76.2098 15.7508C77.8762 15.7434 78.7092 16.9395 78.7092 19.3388C78.7092 20.6277 78.4332 21.605 77.8815 22.2714C77.3298 22.9381 76.5392 23.2715 75.5102 23.2715ZM73.7103 30.625V25.3487C74.4213 25.5115 75.088 25.5929 75.7102 25.5929C77.0279 25.5929 78.1685 25.3391 79.1314 24.832C80.0939 24.3245 80.8381 23.5935 81.364 22.638C81.8898 21.6829 82.1528 20.5459 82.1528 19.2277C82.1528 17.3469 81.6934 15.8952 80.7755 14.8732C79.8568 13.8512 78.5723 13.3402 76.9207 13.3402C76.2023 13.3402 75.5671 13.4645 75.0158 13.7125C74.4637 13.9602 73.9361 14.3587 73.4325 14.9065L72.9106 13.496H70.3V30.625H73.7103ZM60.0582 22.8935C58.6953 22.8935 57.6642 22.4162 56.9646 21.4607C56.2646 20.5052 55.9146 19.1091 55.9146 17.2729C55.9146 15.4656 56.2607 14.0993 56.9532 13.174C57.6453 12.2478 58.6809 11.7854 60.0582 11.7854C61.4205 11.7854 62.4522 12.2517 63.1517 13.1849C63.8517 14.1181 64.2017 15.4805 64.2017 17.2729C64.2017 19.1091 63.8517 20.5052 63.1517 21.4607C62.4522 22.4162 61.4205 22.8935 60.0582 22.8935ZM60.0582 25.6152C62.576 25.6152 64.494 24.9003 65.8122 23.4714C67.1303 22.0417 67.7897 19.9754 67.7897 17.2729C67.7897 14.6291 67.1264 12.5978 65.8012 11.1799C64.4756 9.76148 62.5611 9.05273 60.0582 9.05273C57.5548 9.05273 55.6403 9.76367 54.3151 11.1855C52.9895 12.6074 52.3267 14.6361 52.3267 17.2729C52.3267 19.9832 52.982 22.0513 54.2928 23.4767C55.604 24.902 57.5255 25.6152 60.0582 25.6152Z" fill="#BBD6FF" fill-opacity="0.75"/>
</g>
</g>
<defs>
<clipPath id="clip0_3634_4340">
<rect width="176.458" height="35" fill="white" transform="translate(0.195312)"/>
</clipPath>
</defs>
</svg>
