<svg width="224" height="35" viewBox="0 0 224 35" fill="none" xmlns="http://www.w3.org/2000/svg">
<path fill-rule="evenodd" clip-rule="evenodd" d="M152.524 26.2654V7.76706H156.389V26.2654H152.524ZM154.475 5.25309C153.724 5.25309 153.087 5.01545 152.561 4.54016C152.061 4.03987 151.811 3.402 151.811 2.62654C151.811 1.85109 152.061 1.22572 152.561 0.750444C153.087 0.250148 153.724 0 154.475 0C155.25 0 155.888 0.250148 156.389 0.750444C156.889 1.22572 157.139 1.85109 157.139 2.62654C157.139 3.402 156.889 4.03987 156.389 4.54016C155.888 5.01545 155.25 5.25309 154.475 5.25309ZM55.7558 26.7907C53.9047 26.7907 52.2538 26.4155 50.8029 25.6651C49.3771 24.8896 48.2514 23.789 47.4259 22.3631C46.6005 20.9373 46.1877 19.2488 46.1877 17.2977V16.7348C46.1877 14.7837 46.6005 13.1077 47.4259 11.7069C48.2514 10.281 49.3771 9.18036 50.8029 8.40493C52.2538 7.6295 53.9047 7.24175 55.7558 7.24175C57.6069 7.24175 59.2579 7.6295 60.7087 8.40493C62.1596 9.18036 63.2978 10.281 64.1232 11.7069C64.9487 13.1077 65.3615 14.7837 65.3615 16.7348V17.2977C65.3615 19.2488 64.9487 20.9373 64.1232 22.3631C63.2978 23.789 62.1596 24.8896 60.7087 25.6651C59.2579 26.4155 57.6069 26.7907 55.7558 26.7907ZM55.7558 23.3387C57.4568 23.3387 58.8326 22.8009 59.8833 21.7253C60.9589 20.6246 61.4967 19.1112 61.4967 17.1851V16.8474C61.4967 14.9212 60.9714 13.4204 59.9208 12.3447C58.8702 11.2441 57.4818 10.6938 55.7558 10.6938C54.0799 10.6938 52.704 11.2441 51.6284 12.3447C50.5778 13.4204 50.0525 14.9212 50.0525 16.8474V17.1851C50.0525 19.1112 50.5778 20.6246 51.6284 21.7253C52.704 22.8009 54.0799 23.3387 55.7558 23.3387ZM74.5415 26.2654L68.3128 7.76706H72.4027L77.3181 23.4137H77.9185L82.8339 7.76706H86.9238L80.6951 26.2654H74.5415ZM94.3293 25.6275C95.7302 26.403 97.3686 26.7907 99.2447 26.7907C100.921 26.7907 102.297 26.5281 103.372 26.0028C104.448 25.4775 105.311 24.8271 105.961 24.0516C106.637 23.2762 107.149 22.5382 107.5 21.8378L104.31 20.1868C103.91 21.0373 103.335 21.7878 102.584 22.4382C101.859 23.0886 100.771 23.4137 99.3198 23.4137C97.7689 23.4137 96.4681 22.9385 95.4175 21.9879C94.3919 21.0123 93.8541 19.7116 93.804 18.0856H108.025V16.6223C108.025 14.7462 107.65 13.1077 106.899 11.7069C106.149 10.306 105.098 9.21789 103.747 8.44245C102.422 7.64196 100.871 7.24175 99.0946 7.24175C97.2686 7.24175 95.6551 7.64196 94.2543 8.44245C92.8785 9.21789 91.8029 10.3311 91.0274 11.7819C90.252 13.2078 89.8642 14.8837 89.8642 16.8099V17.2601C89.8642 19.1612 90.252 20.8373 91.0274 22.2881C91.8279 23.7139 92.9285 24.827 94.3293 25.6275ZM104.085 15.1214H93.8416C94.0417 13.7205 94.592 12.6324 95.4925 11.857C96.4181 11.0565 97.6063 10.6563 99.0571 10.6563C100.508 10.6563 101.684 11.0565 102.584 11.857C103.485 12.6324 103.985 13.7205 104.085 15.1214ZM113.428 26.2654V7.76706H117.218V9.94334H117.818C118.118 9.1679 118.593 8.60507 119.244 8.25484C119.919 7.87962 120.745 7.69201 121.72 7.69201H123.934V11.1816H121.57C120.319 11.1816 119.293 11.5318 118.493 12.2322C117.693 12.9076 117.293 13.9582 117.293 15.384V26.2654H113.428ZM128.689 7.76706V26.2654H132.553V16.9224C132.553 14.9212 133.028 13.3954 133.979 12.3447C134.955 11.2941 136.243 10.7688 137.844 10.7688C139.244 10.7688 140.345 11.1566 141.146 11.932C141.946 12.6824 142.347 13.8582 142.347 15.4591V26.2654H146.211V15.1589C146.211 13.558 145.898 12.1947 145.273 11.069C144.647 9.91834 143.784 9.03028 142.684 8.40493C141.608 7.77959 140.37 7.46688 138.97 7.46688C137.193 7.46688 135.855 7.79205 134.955 8.44245C134.054 9.09286 133.428 9.79325 133.079 10.5437H132.478V7.76706H128.689ZM161.974 16.5472V17.11C161.974 19.0362 162.362 20.6996 163.137 22.1005C163.912 23.4763 164.951 24.5394 166.251 25.2898C167.577 26.0153 169.015 26.378 170.566 26.378C171.792 26.378 172.805 26.2279 173.606 25.9277C174.431 25.6275 175.094 25.2398 175.594 24.7645C176.095 24.2893 176.482 23.8265 176.758 23.3762H177.358V29.2672C177.358 30.0176 176.995 30.3928 176.27 30.3928H165.013V31.0897C165.013 32.5699 166.213 33.7698 167.693 33.7698H177.47C178.621 33.7698 179.521 33.4321 180.172 32.7567C180.847 32.0813 181.185 31.1808 181.185 30.0551V7.76706H177.433V10.4311H176.833C176.382 9.65569 175.669 8.93024 174.694 8.25484C173.743 7.57945 172.368 7.24175 170.566 7.24175C169.015 7.24175 167.589 7.61697 166.289 8.36741C164.988 9.11785 163.938 10.181 163.137 11.5568C162.362 12.9326 161.974 14.5961 161.974 16.5472ZM175.744 21.4251C174.669 22.4757 173.293 23.001 171.617 23.001C169.966 23.001 168.59 22.4757 167.49 21.4251C166.414 20.3495 165.876 18.8736 165.876 16.9975V16.6598C165.876 14.7336 166.414 13.2578 167.49 12.2322C168.59 11.1816 169.966 10.6563 171.617 10.6563C173.318 10.6563 174.707 11.1816 175.782 12.2322C176.857 13.2578 177.395 14.7336 177.395 16.6598V16.9975C177.395 18.8736 176.845 20.3495 175.744 21.4251ZM187.626 26.2654V0H191.49V10.3936H192.091C192.341 9.91834 192.691 9.45555 193.141 9.00528C193.617 8.55502 194.229 8.19233 194.98 7.91714C195.756 7.61697 196.731 7.46688 197.907 7.46688C199.308 7.46688 200.546 7.77959 201.621 8.40493C202.722 9.03028 203.585 9.91834 204.21 11.069C204.836 12.1947 205.148 13.558 205.148 15.1589V26.2654H201.284V15.4591C201.284 13.8582 200.884 12.6824 200.083 11.932C199.283 11.1566 198.182 10.7688 196.781 10.7688C195.18 10.7688 193.892 11.2941 192.916 12.3447C191.966 13.3954 191.49 14.9212 191.49 16.9224V26.2654H187.626ZM215.188 25.2523C215.864 25.9277 216.764 26.2654 217.89 26.2654H222.993V23.001H219.128C218.428 23.001 218.077 22.6258 218.077 21.8753V11.0315H223.593V7.76706H218.077V1.65097H214.213V7.76706H209.11V11.0315H214.213V22.5507C214.213 23.6764 214.538 24.5769 215.188 25.2523ZM29.0418 6.09709H7.65351V0.894525H29.0418C31.9151 0.894525 34.2443 3.22379 34.2443 6.09709H29.0418ZM29.0418 8.40937V29.7976V35.0002C31.9151 35.0002 34.2443 32.6709 34.2443 29.7976V8.40937H29.0418ZM5.34124 29.7976H26.7295V35.0002H5.34124C2.46794 35.0002 0.138672 32.6709 0.138672 29.7976H5.34124ZM5.34124 0.894525V6.09709V27.4854H0.138672V6.09709C0.138672 3.22379 2.46794 0.894525 5.34124 0.894525ZM15.7459 11.8962C15.7459 11.5666 16.0132 11.2994 16.3428 11.2994H18.6175C18.9471 11.2994 19.2143 11.5666 19.2143 11.8962V15.924H23.2419C23.5716 15.924 23.8388 16.1912 23.8388 16.5208V18.7955C23.8388 19.125 23.5716 19.3923 23.2419 19.3923H19.2143V23.42C19.2143 23.7496 18.9471 24.0168 18.6175 24.0168H16.3428C16.0132 24.0168 15.7459 23.7496 15.7459 23.42V19.3923H11.7183C11.3887 19.3923 11.1215 19.125 11.1215 18.7955V16.5208C11.1215 16.1912 11.3887 15.924 11.7183 15.924H15.7459V11.8962Z" fill="#BBD6FF" fill-opacity="0.75"/>
</svg>
