<svg width="240" height="43" viewBox="0 0 240 43" fill="none" xmlns="http://www.w3.org/2000/svg">
<g clip-path="url(#clip0_2903_3266)">
<path d="M78.2892 13.394L72.8166 28.7504C72.7915 28.8247 72.7422 28.8883 72.6764 28.9315C72.6106 28.9746 72.5322 28.9946 72.4535 28.9884H72.0389C71.9601 28.9915 71.882 28.9704 71.8159 28.9276C71.7497 28.8851 71.6983 28.8231 71.669 28.7504L67.5662 17.9804L63.4703 28.7504C63.4431 28.8233 63.3932 28.8854 63.3278 28.9284C63.2626 28.9712 63.1853 28.9921 63.1071 28.9884H62.6858C62.6075 28.9928 62.5298 28.9719 62.4644 28.9292C62.399 28.8862 62.3494 28.8237 62.3227 28.7504L56.8501 13.3994C56.7661 13.1614 56.857 13.0135 57.09 13.0135H58.7836C58.8634 13.0055 58.9435 13.0247 59.0107 13.068C59.078 13.1112 59.1284 13.176 59.1535 13.2515L63.0544 24.878L67.0202 14.2303C67.0488 14.157 67.0998 14.0945 67.1663 14.0518C67.2327 14.009 67.3111 13.9882 67.3901 13.9924H67.7465C67.8247 13.9884 67.902 14.0094 67.9674 14.0522C68.0328 14.095 68.0825 14.1574 68.1095 14.2303L72.1933 24.878L76.0034 13.2515C76.0285 13.176 76.079 13.1112 76.1463 13.068C76.2134 13.0247 76.2936 13.0055 76.3733 13.0135H78.0413C78.281 13.0135 78.3719 13.1614 78.2879 13.394" fill="#BBD6FF" fill-opacity="0.75"/>
<path d="M102.107 20.8724C102.092 22.454 101.605 23.9957 100.709 25.3035C99.8121 26.6112 98.5455 27.6263 97.0688 28.2212C95.5919 28.8159 93.9706 28.9638 92.4093 28.646C90.848 28.3282 89.4164 27.559 88.2947 26.4352C87.1731 25.3115 86.4116 23.8835 86.1062 22.331C85.8007 20.7788 85.9651 19.1714 86.5786 17.7116C87.1919 16.2517 88.227 15.0047 89.5533 14.1274C90.8795 13.2502 92.4377 12.7821 94.0316 12.782C95.1027 12.7671 96.1659 12.9667 97.1576 13.369C98.1493 13.7712 99.049 14.3679 99.8028 15.1232C100.557 15.8785 101.149 16.7769 101.545 17.7648C101.941 18.7526 102.132 19.8095 102.107 20.8724ZM99.8673 20.8724C99.8673 17.1492 97.4202 14.5851 94.0316 14.5851C90.6428 14.5851 88.1959 17.1492 88.1959 20.8724C88.1959 24.5954 90.6428 27.1597 94.0316 27.1597C97.4202 27.1597 99.8673 24.5954 99.8673 20.8724Z" fill="#BBD6FF" fill-opacity="0.75"/>
<path d="M123.49 28.0945C123.542 28.1537 123.574 28.2272 123.583 28.305C123.592 28.3829 123.576 28.4615 123.539 28.5306C123.502 28.5996 123.444 28.6558 123.374 28.6917C123.304 28.7275 123.224 28.7415 123.146 28.7317H121.621C121.571 28.7302 121.522 28.7166 121.479 28.692C121.436 28.6673 121.4 28.6326 121.374 28.5906L117.545 22.8573H113.43V28.4105C113.429 28.4957 113.394 28.5772 113.334 28.6374C113.273 28.6978 113.191 28.7321 113.105 28.7331H111.614C111.529 28.7317 111.447 28.6972 111.387 28.637C111.326 28.5768 111.292 28.4955 111.291 28.4105V13.3364C111.292 13.2514 111.327 13.1704 111.387 13.1102C111.447 13.05 111.529 13.0154 111.614 13.0137H117.476C121.579 13.0137 123.604 15.1529 123.604 17.9348C123.629 19.0402 123.255 20.1181 122.549 20.9734C121.843 21.829 120.852 22.4057 119.755 22.5992L123.49 28.0945ZM117.057 21.0542C120.283 21.0542 121.367 19.7271 121.367 17.9362C121.367 16.1452 120.283 14.8181 117.057 14.8181H113.429V21.0542H117.057Z" fill="#BBD6FF" fill-opacity="0.75"/>
<path d="M148.699 12.7598H149.186C149.229 12.757 149.273 12.7635 149.313 12.7787C149.354 12.794 149.391 12.8176 149.422 12.8482C149.453 12.8787 149.476 12.9154 149.492 12.9558C149.507 12.9962 149.514 13.0394 149.511 13.0825V28.4106C149.514 28.4538 149.507 28.4969 149.492 28.5374C149.476 28.5779 149.453 28.6145 149.422 28.645C149.391 28.6755 149.354 28.6993 149.313 28.7144C149.273 28.7297 149.229 28.7361 149.186 28.7334H147.695C147.652 28.7361 147.608 28.7297 147.568 28.7144C147.527 28.6993 147.49 28.6755 147.459 28.645C147.428 28.6145 147.405 28.5779 147.389 28.5374C147.374 28.4969 147.367 28.4538 147.37 28.4106V17.529L141.365 26.1545C141.346 26.1971 141.314 26.2333 141.274 26.2587C141.234 26.284 141.188 26.2974 141.141 26.2974C141.094 26.2974 141.047 26.284 141.008 26.2587C140.968 26.2333 140.936 26.1971 140.916 26.1545L134.913 17.529V28.4093C134.916 28.4524 134.909 28.4956 134.894 28.536C134.878 28.5765 134.855 28.6131 134.824 28.6436C134.793 28.6741 134.756 28.6979 134.715 28.7131C134.675 28.7284 134.631 28.7347 134.588 28.7321H133.097C133.054 28.7347 133.01 28.7284 132.97 28.7131C132.929 28.6979 132.892 28.6741 132.861 28.6436C132.83 28.6131 132.806 28.5765 132.791 28.536C132.776 28.4956 132.769 28.4524 132.772 28.4093V13.0811C132.769 13.0381 132.776 12.9949 132.791 12.9545C132.806 12.914 132.83 12.8774 132.861 12.8468C132.892 12.8163 132.929 12.7926 132.97 12.7774C133.01 12.7621 133.054 12.7557 133.097 12.7584H133.578C133.659 12.7587 133.739 12.7789 133.809 12.8172C133.88 12.8554 133.941 12.9105 133.985 12.9776L141.139 22.8912L148.298 12.9776C148.34 12.9109 148.398 12.8558 148.468 12.8174C148.537 12.7791 148.615 12.7588 148.694 12.7584" fill="#BBD6FF" fill-opacity="0.75"/>
<path d="M173.599 13.3364V28.4092C173.597 28.4943 173.562 28.5754 173.502 28.6357C173.441 28.6959 173.359 28.7304 173.273 28.7317H171.783C171.697 28.7304 171.615 28.6959 171.555 28.6357C171.494 28.5754 171.459 28.4943 171.458 28.4092V21.5423H161.598V28.4092C161.597 28.4943 161.562 28.5754 161.501 28.6357C161.44 28.6959 161.359 28.7304 161.273 28.7317H159.782C159.696 28.7304 159.615 28.6959 159.554 28.6357C159.493 28.5754 159.459 28.4943 159.457 28.4092V13.3364C159.459 13.2512 159.493 13.1699 159.554 13.1097C159.615 13.0495 159.696 13.0151 159.782 13.0137H161.273C161.359 13.0151 161.44 13.0495 161.501 13.1097C161.562 13.1699 161.597 13.2512 161.598 13.3364V19.7393H171.458V13.3364C171.459 13.2512 171.494 13.1699 171.555 13.1097C171.615 13.0495 171.697 13.0151 171.783 13.0137H173.273C173.359 13.0151 173.441 13.0495 173.502 13.1097C173.562 13.1699 173.597 13.2512 173.599 13.3364Z" fill="#BBD6FF" fill-opacity="0.75"/>
<path d="M198.936 20.8724C198.921 22.454 198.434 23.9957 197.538 25.3035C196.643 26.6112 195.375 27.6263 193.898 28.2212C192.422 28.8159 190.8 28.9638 189.239 28.646C187.678 28.3282 186.246 27.559 185.124 26.4352C184.003 25.3115 183.241 23.8835 182.936 22.331C182.63 20.7788 182.795 19.1714 183.408 17.7116C184.022 16.2517 185.057 15.0047 186.383 14.1274C187.709 13.2502 189.267 12.7821 190.861 12.782C191.932 12.7671 192.995 12.9667 193.986 13.369C194.978 13.7712 195.879 14.3679 196.633 15.1232C197.387 15.8785 197.979 16.7769 198.374 17.7648C198.771 18.7526 198.961 19.8095 198.936 20.8724ZM196.696 20.8724C196.696 17.1492 194.249 14.5851 190.861 14.5851C187.472 14.5851 185.025 17.1492 185.025 20.8724C185.025 24.5954 187.472 27.1597 190.861 27.1597C194.249 27.1597 196.696 24.5954 196.696 20.8724Z" fill="#BBD6FF" fill-opacity="0.75"/>
<path d="M219.334 27.25V28.4092C219.338 28.4521 219.33 28.4955 219.315 28.5357C219.3 28.5762 219.277 28.6128 219.246 28.6433C219.215 28.674 219.177 28.6976 219.137 28.7129C219.096 28.7281 219.052 28.7346 219.01 28.7317H208.449C208.362 28.7304 208.282 28.6959 208.22 28.6357C208.159 28.5754 208.125 28.4943 208.125 28.4092V13.3364C208.125 13.2512 208.159 13.1699 208.22 13.1097C208.282 13.0495 208.362 13.0151 208.449 13.0137H209.939C210.025 13.0154 210.106 13.05 210.167 13.1102C210.226 13.1704 210.261 13.2514 210.263 13.3364V26.9275H219.014C219.056 26.9246 219.1 26.9311 219.14 26.9463C219.183 26.9616 219.219 26.9852 219.25 27.0157C219.28 27.0464 219.303 27.083 219.319 27.1235C219.334 27.1637 219.342 27.2069 219.338 27.25" fill="#BBD6FF" fill-opacity="0.75"/>
<path d="M239.908 27.2488V28.4077C239.912 28.4509 239.905 28.494 239.889 28.5345C239.874 28.575 239.851 28.6116 239.82 28.6421C239.789 28.6726 239.751 28.6963 239.711 28.7115C239.671 28.7268 239.626 28.7332 239.584 28.7305H228.179C228.093 28.7291 228.012 28.6946 227.951 28.6344C227.889 28.5742 227.855 28.4929 227.853 28.4077V13.335C227.855 13.2499 227.889 13.1686 227.951 13.1084C228.012 13.0482 228.093 13.0137 228.179 13.0123H239.325C239.368 13.0096 239.412 13.016 239.452 13.0313C239.492 13.0465 239.531 13.0702 239.561 13.1007C239.592 13.1313 239.615 13.168 239.63 13.2084C239.646 13.2488 239.653 13.292 239.649 13.335V14.4941C239.653 14.5372 239.646 14.5804 239.63 14.6208C239.615 14.6612 239.592 14.6979 239.561 14.7284C239.531 14.7589 239.492 14.7826 239.452 14.7978C239.412 14.8131 239.368 14.8195 239.325 14.8168H229.991V19.7379H238.286C238.33 19.7352 238.372 19.7415 238.412 19.7563C238.453 19.7713 238.489 19.7943 238.52 19.8242C238.551 19.8539 238.574 19.8898 238.591 19.9295C238.606 19.969 238.612 20.0114 238.61 20.0539V21.2196C238.614 21.2625 238.606 21.3055 238.591 21.3456C238.575 21.3857 238.552 21.4221 238.522 21.4526C238.491 21.4829 238.455 21.5065 238.414 21.5218C238.374 21.537 238.33 21.5435 238.286 21.541H229.991V26.926H239.584C239.628 26.9233 239.672 26.9297 239.713 26.945C239.753 26.9602 239.789 26.9839 239.82 27.0144C239.851 27.0449 239.876 27.0817 239.891 27.122C239.906 27.1625 239.912 27.2056 239.91 27.2488" fill="#BBD6FF" fill-opacity="0.75"/>
<path d="M21.5156 42.3508C15.988 42.3472 10.6876 40.1511 6.77735 36.2443C2.86705 32.3375 0.666212 27.0392 0.657715 21.5117C0.666211 15.984 2.86693 10.6853 6.77715 6.77805C10.6874 2.87084 15.9878 0.674164 21.5156 0.669922C27.0433 0.674164 32.3436 2.87084 36.2538 6.77805C40.164 10.6853 42.3647 15.984 42.3733 21.5117C42.3647 27.0392 40.164 32.3375 36.2538 36.2443C32.3434 40.1511 27.0431 42.3472 21.5156 42.3508ZM21.5156 2.27437C16.4131 2.2779 11.5204 4.30533 7.91088 7.9118C4.30142 11.5183 2.26995 16.4093 2.26216 21.5117C2.26712 26.6148 4.29779 31.5071 7.90795 35.1138C11.5181 38.7204 16.4125 40.7464 21.5156 40.7464C26.6185 40.7464 31.513 38.7204 35.123 35.1138C38.7333 31.5071 40.7639 26.6148 40.7689 21.5117C40.761 16.4093 38.7295 11.5183 35.1202 7.9118C31.5107 4.30533 26.6179 2.2779 21.5156 2.27437Z" fill="#BBD6FF" fill-opacity="0.75"/>
<path d="M24.1524 39.0546C19.5729 39.0509 15.1818 37.2311 11.9423 33.9943C8.70288 30.7572 6.87964 26.3675 6.87256 21.788C6.87964 17.2085 8.70288 12.8188 11.9423 9.58183C15.1818 6.34488 19.5729 4.52503 24.1524 4.52148C28.7319 4.52503 33.1229 6.34488 36.3625 9.58183C39.6019 12.8188 41.4251 17.2085 41.4322 21.788C41.4251 26.3675 39.6019 30.7572 36.3625 33.9943C33.1229 37.2311 28.7319 39.0509 24.1524 39.0546ZM24.1524 5.76762C19.9037 5.77115 15.8297 7.45982 12.8244 10.4632C9.81906 13.4665 8.12771 17.5393 8.12134 21.788C8.12842 26.0363 9.82012 30.1084 12.8254 33.1111C15.8306 36.114 19.9041 37.8023 24.1524 37.8057C28.4007 37.8023 32.4741 36.114 35.4794 33.1111C38.4848 30.1084 40.1764 26.0363 40.1835 21.788C40.1764 17.5397 38.4848 13.4676 35.4794 10.4648C32.4741 7.4621 28.4007 5.77383 24.1524 5.7703V5.76762Z" fill="#BBD6FF" fill-opacity="0.75"/>
<path d="M26.7894 35.7596C23.1581 35.7567 19.6762 34.3137 17.1075 31.7469C14.5388 29.1803 13.0931 25.6995 13.0874 22.0681C13.0931 18.4369 14.5388 14.9562 17.1075 12.3895C19.6762 9.82283 23.1581 8.37979 26.7894 8.37695C30.4208 8.37908 33.9032 9.82189 36.4719 12.3887C39.0408 14.9556 40.4864 18.4367 40.4912 22.0681C40.4857 25.6995 39.0398 29.1803 36.4711 31.7469C33.9024 34.3137 30.4206 35.7567 26.7894 35.7596ZM26.7894 9.26741C23.3941 9.26954 20.1383 10.6185 17.7364 13.0184C15.3345 15.4182 13.9828 18.6729 13.9778 22.0681C13.9835 25.463 15.3356 28.717 17.7373 31.1163C20.139 33.5155 23.3945 34.8643 26.7894 34.8664C30.1841 34.8643 33.4396 33.5155 35.8415 31.1163C38.2432 28.717 39.5952 25.463 39.601 22.0681C39.596 18.6729 38.2441 15.4182 35.8423 13.0184C33.4404 10.6185 30.1847 9.26954 26.7894 9.26741Z" fill="#BBD6FF" fill-opacity="0.75"/>
<path d="M29.4268 32.4633C26.7437 32.4612 24.171 31.3949 22.2731 29.4985C20.3753 27.602 19.307 25.0302 19.3027 22.3472C19.3063 19.6637 20.3741 17.0912 22.2722 15.1942C24.1702 13.2972 26.7434 12.2306 29.4268 12.2285C32.1103 12.2306 34.6833 13.2972 36.5813 15.1942C38.4794 17.0912 39.5472 19.6637 39.5509 22.3472C39.5464 25.0302 38.4784 27.602 36.5804 29.4985C34.6825 31.3949 32.1098 32.4612 29.4268 32.4633ZM29.4268 12.7633C26.8851 12.7655 24.4481 13.7757 22.6504 15.5724C20.8526 17.3691 19.8412 19.8055 19.8375 22.3472C19.8417 24.8883 20.8538 27.3241 22.6513 29.1203C24.4489 30.9164 26.8857 31.9263 29.4268 31.9284C31.9678 31.9263 34.4046 30.9164 36.2022 29.1203C37.9997 27.3241 39.0118 24.8883 39.016 22.3472C39.0123 19.8055 38.0009 17.3691 36.2031 15.5724C34.4056 13.7757 31.9684 12.7655 29.4268 12.7633Z" fill="#BBD6FF" fill-opacity="0.75"/>
</g>
<defs>
<clipPath id="clip0_2903_3266">
<rect width="239.342" height="42" fill="white" transform="translate(0.657715 0.5)"/>
</clipPath>
</defs>
</svg>
